<svg enable-background="new 0 0 507.1 66.2" viewBox="0 0 507.1 66.2" xmlns="http://www.w3.org/2000/svg"><g clip-rule="evenodd" fill="#c82910" fill-rule="evenodd"><path d="m0 12.6h83.7v40.9h-83.7z"/><path d="m0 59.8h507.1v6.4h-507.1z"/><path d="m0 0h507.1v6.4h-507.1z"/></g><path d="m90.2 52.4v-38.8h15.9c4.1 0 7.4 1.1 9.9 3.2 2.6 2.3 4 5.4 4 9.5s-1.3 7.3-3.9 9.4c-2.4 2-5.7 3-9.9 3h-7.8v13.8h-8.2zm8.2-20.5h7.7c1.8 0 3.2-.5 4.3-1.5 1-1 1.5-2.4 1.5-4.2 0-1.7-.5-3.1-1.6-4.1s-2.5-1.5-4.2-1.5h-7.7z"/><path d="m158 26h-8.4l-.2-.8c-.4-1.8-1.4-3.2-3-4.2-1.5-.9-3.2-1.4-5.1-1.4-4.1 0-7 1.6-8.8 4.9-1.3 2.3-1.9 5-1.9 8.3 0 7.8 2.7 12.3 8 13.5.8.2 1.6.3 2.4.3 2.4 0 4.4-.7 6-2 1.8-1.4 2.6-3.3 2.6-5.6h8.5l-.3 2.1c-.6 3.8-2.5 6.9-5.9 9.2-3.1 2.1-6.6 3.1-10.7 3.1-6.6 0-11.7-2.3-15.2-7-2.8-3.7-4.2-8.2-4.2-13.5 0-5.2 1.4-9.7 4.3-13.3s6.8-5.8 11.9-6.5c1.1-.2 2.2-.2 3.2-.2 3.9 0 7.2.9 9.9 2.6 3 1.9 5 4.6 6.1 8.2.4.5.6 1.3.8 2.3z"/><path d="m159.9 39.4h8.2c0 .3-.1.6-.1.7 0 .7.1 1.4.4 2.1 1 2.9 3.6 4.4 7.8 4.4 2 0 3.7-.3 5.1-1 1.8-.8 2.8-2.1 2.8-3.9 0-1.9-1.3-3.2-3.9-3.9l-3.2-.9-5.2-1.3c-7.1-1.8-10.6-5.2-10.6-10.2 0-1.1.2-2.4.5-3.8.7-3.1 2.6-5.4 5.7-6.9 2.6-1.3 5.6-1.9 9.1-1.9 9 0 14 3.7 15.2 11 .1.5.1.8.1 1v1.1h-8v-1.1c0-1.8-.8-3.2-2.4-4.2-1.3-.8-2.9-1.2-4.9-1.2h-.9c-.3 0-.6.1-1 .1-3.5.3-5.3 1.7-5.3 4.3 0 1.7 1.3 2.9 3.8 3.6l9.9 2.6c6.2 1.6 9.4 5.1 9.4 10.3 0 1.1-.2 2.3-.5 3.6-.8 3.3-2.8 5.7-5.9 7.4-2.6 1.4-5.8 2.2-9.4 2.2h-2.2l-1.4-.2c-4.1-.6-7.2-2-9.4-4.2-2.4-2.6-3.7-5.8-3.7-9.7z"/><path d="m212 52.4v-38.8h8.2v38.8z"/><path d="m225.6 52.4v-29.1h7.6v3.6l.6-.8c1.9-2.5 4.6-3.7 8-3.7s5.9 1.1 7.7 3.4c1.6 2.1 2.4 4.8 2.4 8.3v18.3h-7.8v-18c0-1.6-.4-2.9-1.2-3.9s-2-1.6-3.6-1.6c-1.9 0-3.4.6-4.4 1.8s-1.6 2.8-1.6 4.8v17h-7.7z"/><path d="m255.6 42.3h7.5v1c.3 2.3 1.9 3.7 4.8 4.2.5.1.9.1 1.2.1.1 0 .5 0 1.1-.1 2.2-.3 3.5-1 3.8-2.3.1-.3.1-.6.1-.8 0-.7-.4-1.4-1.3-2-.4-.3-1.1-.5-2-.8l-5.5-1.4c-5.9-1.5-8.8-4.2-8.8-8.1 0-.8.1-1.8.4-3 .6-2.5 2.1-4.3 4.6-5.5 2-1 4.4-1.5 7.2-1.5 3.5 0 6.4.8 8.7 2.5 2.6 1.9 3.9 4.5 3.9 7.8h-7.4v-.8c0-2.2-1.4-3.4-4.2-3.8-.5-.1-1-.1-1.5-.1-1.1 0-2 .2-2.9.7-1 .5-1.5 1.3-1.5 2.3 0 .8.4 1.3 1.1 1.8l1.1.5 1.5.4 6.2 1.7 1.9.6c4.2 1.3 6.3 3.8 6.3 7.5 0 1.6-.4 3.1-1.1 4.6-2 3.7-6 5.6-12.1 5.6-3.4 0-6.3-.7-8.5-2.1-2.6-1.6-4.2-4-4.7-7.2z"/><path d="m283.8 28.7v-5.5h3.3v-6.6h7.8v6.6h5.3v5.5h-5.3v14.1c0 1.4.1 2.4.2 2.8.3 1.1.9 1.6 1.9 1.6 1.3 0 2.4-.3 3.3-.9v6c-1.8.6-3.7.9-5.6.9-5 0-7.5-2.9-7.5-8.6v-15.9z"/><path d="m303.3 52.4v-29.1h7.5v4.8c.6-2.7 2.2-4.5 5-5.4.7-.2 1.4-.3 2.2-.3.6 0 1.3.1 2 .3v7.1l-1.1-.2c-.2 0-.5-.1-.9-.1-2.2 0-3.9.8-5.1 2.5-1.2 1.5-1.7 3.4-1.7 5.6v14.8z"/><path d="m322.2 41.2v-17.9h7.8v17.7c0 3.9 1.7 5.8 5 5.8 3.7 0 5.6-2.1 5.6-6.3v-17.2h7.8v29.2h-7.4v-3.9c-.9 2.2-2.8 3.7-5.8 4.4-.9.2-1.8.3-2.6.3-.5 0-1.1-.1-1.8-.2-5.8-.8-8.6-4.8-8.6-11.9z"/><path d="m353.7 52.4v-29.1h7.7v3.9l.5-.8c1.6-2.7 4.2-4.1 7.7-4.1 1.7 0 3.2.4 4.7 1.3 1.4.9 2.4 2 3 3.6l.2.4.6-.8c1.6-2.2 3.6-3.5 6-4 1.2-.3 2.2-.4 3.1-.4 3.1 0 5.4 1.2 6.9 3.6 1.3 2 1.9 4.6 1.9 7.9v18.6h-7.8v-17.9c0-3.6-1.4-5.3-4.2-5.3-3.5 0-5.2 2-5.2 6.1v17.1h-7.8v-17.8c0-3.7-1.4-5.5-4.3-5.5-1.6 0-2.9.6-3.8 1.7-.9 1.2-1.4 2.6-1.4 4.2v17.3z"/><path d="m429 40.2h-21l.1.9c.5 3.4 2.3 5.5 5.4 6.1.5.1 1 .2 1.5.2 2.2 0 3.9-.8 5.1-2.4.4-.5.7-1.1.8-1.6h7.9c-.8 3.2-2.4 5.7-5 7.5-2.4 1.7-5.3 2.6-8.6 2.6-1 0-2.1-.1-3.4-.3-3.7-.6-6.6-2.3-8.6-5.2-2-2.7-3-5.9-3-9.8 0-4.7 1.3-8.6 4-11.5s6.3-4.4 11-4.4c4.5 0 7.9 1.5 10.4 4.5 2.3 2.8 3.5 6.5 3.5 11v2.4zm-20.8-5.6h13v-.9c-.1-1.7-.8-3-2.1-4.1-1.3-1-2.7-1.6-4.4-1.6-1.6 0-3.1.5-4.2 1.6-1.2 1.1-1.9 2.5-2.1 4.2z"/><path d="m433.2 52.4v-29.1h7.6v3.6l.6-.8c1.9-2.5 4.6-3.7 8-3.7s5.9 1.1 7.7 3.4c1.6 2.1 2.4 4.8 2.4 8.3v18.3h-7.8v-18c0-1.6-.4-2.9-1.2-3.9s-2-1.6-3.6-1.6c-1.9 0-3.4.6-4.4 1.8s-1.6 2.8-1.6 4.8v17h-7.7z"/><path d="m462.4 28.7v-5.5h3.3v-6.6h7.8v6.6h5.3v5.5h-5.3v14.1c0 1.4.1 2.4.2 2.8.3 1.1.9 1.6 1.9 1.6 1.3 0 2.4-.3 3.3-.9v6c-1.8.6-3.7.9-5.6.9-5 0-7.5-2.9-7.5-8.6v-15.9z"/><path d="m480.3 42.3h7.5v1c.3 2.3 1.9 3.7 4.8 4.2.5.1.9.1 1.2.1.1 0 .5 0 1.1-.1 2.2-.3 3.5-1 3.8-2.3.1-.3.1-.6.1-.8 0-.7-.4-1.4-1.3-2-.4-.3-1.1-.5-2-.8l-5.5-1.4c-5.9-1.5-8.8-4.2-8.8-8.1 0-.8.1-1.8.4-3 .6-2.5 2.1-4.3 4.6-5.5 2-1 4.4-1.5 7.2-1.5 3.5 0 6.4.8 8.7 2.5 2.6 1.9 3.9 4.5 3.9 7.8h-7.4v-.8c0-2.2-1.4-3.4-4.2-3.8-.5-.1-1-.1-1.5-.1-1.1 0-2 .2-2.9.7-1 .5-1.5 1.3-1.5 2.3 0 .8.4 1.3 1.1 1.8l1.1.5 1.5.4 6.2 1.7 1.9.6c4.2 1.3 6.3 3.8 6.3 7.5 0 1.6-.4 3.1-1.1 4.6-2 3.7-6 5.6-12.1 5.6-3.4 0-6.3-.7-8.5-2.1-2.6-1.6-4.2-4-4.7-7.2z"/></svg>